<svg width="148" height="39" viewBox="0 0 148 39" fill="none" xmlns="http://www.w3.org/2000/svg">
<path fill-rule="evenodd" clip-rule="evenodd" d="M96.5872 10.4748C96.3477 10.4748 96.2382 10.5904 96.2382 10.7902V14.4529C96.2382 14.6876 96.3646 14.7887 96.58 14.7887L98.2266 14.7839V26.7372H96.6005C96.4223 26.7372 96.2791 26.8816 96.2791 27.0597V30.7332C96.2791 30.9078 96.4223 31.0522 96.6005 31.0522H104.265C104.443 31.0522 104.587 30.9078 104.587 30.7332V27.0597C104.587 26.8816 104.443 26.7372 104.265 26.7372H102.674L102.668 10.795C102.668 10.6193 102.519 10.4748 102.343 10.4748H96.5872ZM1.73564 5.79105C1.55871 5.79105 1.41548 5.91863 1.41548 6.11121V9.7811C1.41548 9.95924 1.55871 10.1025 1.73564 10.1025H6.61519V26.1373C6.61519 28.4471 6.11086 29.6531 4.8639 30.344C3.90219 30.8809 2.5469 31.1107 0.654778 31.1107H0.321371C0.122771 31.1107 0 31.2335 0 31.4321V34.9576C0 35.1598 0.1324 35.2801 0.321371 35.2801L1.14947 35.2813C4.91084 35.2813 7.52153 34.3967 9.06098 32.9246C10.4223 31.6259 11.0614 29.9998 11.0614 27.6852V6.09196C11.0614 5.89817 10.9314 5.79105 10.7256 5.79105H1.73564ZM72.6132 5.78492C72.4362 5.78492 72.2749 5.92936 72.2749 6.10629V22.6298C72.2749 24.2282 71.8898 25.4343 71.1941 26.1553C70.5345 26.8377 69.592 27.2301 68.4329 27.2301H68.1284C66.9802 27.2301 66.057 26.8907 65.4058 26.2443C64.7053 25.5474 64.3225 24.2993 64.3225 22.5708V6.10629C64.3225 5.92936 64.1781 5.78492 64.0024 5.78492H60.1916C60.0147 5.78492 59.8739 5.92936 59.8739 6.10629V22.7502C59.8739 26.1155 60.6996 27.726 61.9598 28.9754C63.0563 30.0623 64.5259 30.6978 66.0473 30.9626V37.7487C66.0473 37.9353 66.1773 38.0701 66.3699 38.0701H70.1216C70.3214 38.0701 70.4418 37.9389 70.4418 37.7487V30.9542C72.0595 30.6424 73.5424 29.8853 74.6281 28.7708C75.9304 27.4275 76.7236 25.4608 76.7236 22.7381V6.10629C76.7236 5.92936 76.5996 5.78492 76.4203 5.78492H72.6132ZM108.079 12.2917V12.8526C108.079 17.1725 109.976 18.2593 114.687 20.0792C119.045 21.7607 119.854 22.3036 119.854 24.5411C119.854 26.2852 118.457 27.6248 116.09 27.6248C113.249 27.6248 112.052 26.1468 112.052 23.4217C112.052 23.1774 111.893 23.0498 111.562 23.0498H108.164C107.868 23.0498 107.749 23.2087 107.749 23.4422V24.5784C107.749 28.5468 110.284 31.4969 115.904 31.4969C121.203 31.4969 124.408 28.4854 124.408 24.493V23.6986C124.408 20.0383 122.625 18.671 117.554 16.6525C113.433 15.0095 112.584 14.5955 112.584 12.199C112.584 10.5537 113.718 9.22123 115.879 9.22123C118.138 9.22123 119.185 10.5163 119.185 12.7515C119.185 13.0873 119.416 13.2281 119.83 13.2281H123.129C123.338 13.2281 123.464 13.1246 123.464 12.8767V12.1918C123.464 7.85029 120.324 5.36358 115.826 5.36358C111.075 5.36358 108.079 8.3486 108.079 12.2917ZM19.8816 15.1537C19.8816 13.1316 20.2379 11.816 20.9938 10.935C21.6678 10.1514 22.6115 9.66032 23.9222 9.66032H24.0113C25.1367 9.66032 26.1959 10.1129 26.9446 10.9458C27.6932 11.7775 28.0712 13.0112 28.0712 15.1718V16.2153H19.8816V15.1537ZM17.765 7.91396C16.2219 9.57858 15.4312 11.8113 15.4312 15.7785V21.5403C15.4312 25.4028 16.2256 27.6367 17.8035 29.258C19.2816 30.7782 21.3193 31.4884 23.6941 31.4884C27.4964 31.4884 30.2166 29.5698 31.8813 26.2285C31.9775 26.0142 31.9318 25.8975 31.7212 25.7916L28.765 24.3424C28.5749 24.2485 28.4449 24.3099 28.3341 24.5061C27.1955 26.5258 25.7006 27.3912 23.9373 27.3912C22.8263 27.3912 21.8501 26.9892 21.1484 26.2899C20.3576 25.4991 19.8834 24.1643 19.8834 22.0013V20.5112H32.1798C32.4 20.5112 32.5011 20.4041 32.5011 20.1959L32.5023 15.5306C32.5023 11.5249 31.6562 9.35591 30.3418 7.95488C28.7578 6.2722 26.4805 5.35623 23.9493 5.35623C21.6552 5.35623 19.2828 6.2722 17.765 7.91396ZM98.0024 1.87891C97.805 1.87891 97.6786 2.02334 97.6786 2.20028V6.6092C97.6786 6.81261 97.8242 6.92936 98.0024 6.92936H102.19C102.384 6.92936 102.51 6.81382 102.51 6.6092V2.20028C102.51 2.0101 102.405 1.87891 102.19 1.87891H98.0024ZM129.331 0.177602C129.137 0.177602 128.995 0.297966 128.995 0.497769V26.7467H127.341C127.163 26.7467 127.02 26.8899 127.02 27.0668V30.7379C127.02 30.9137 127.163 31.0617 127.341 31.0617H135.03C135.209 31.0617 135.352 30.9137 135.352 30.7379V27.0668C135.352 26.8899 135.209 26.7467 135.03 26.7467H133.445L133.443 15.2556C133.443 13.142 133.805 11.8854 134.695 10.9381C135.396 10.1931 136.46 9.69355 137.832 9.69355C138.998 9.69355 139.997 10.0823 140.641 10.8117C141.396 11.6615 141.746 12.9927 141.746 15.1725V26.7467H140.119C139.941 26.7467 139.799 26.8899 139.799 27.0668V30.7379C139.799 30.9137 139.941 31.0617 140.119 31.0617H147.676C147.856 31.0617 148 30.9137 148 30.7379V27.0668C148 26.8899 147.856 26.7467 147.676 26.7467H146.192V13.9701C146.192 10.8394 145.499 8.97378 144.168 7.50775C142.944 6.21745 141.043 5.36889 138.945 5.36889C136.769 5.36889 134.641 6.21745 133.443 7.52099V0.497769C133.443 0.322038 133.3 0.177602 133.122 0.177602H129.331ZM37.2919 0.166578C37.0969 0.166578 36.9694 0.301386 36.9694 0.486746V24.8917C36.9694 27.4747 37.5399 28.7638 38.5389 29.7339C39.7221 30.8858 41.6768 31.4623 43.8758 31.4623H45.1204C45.313 31.4623 45.4418 31.3384 45.4418 31.1446V27.5433C45.4418 27.3146 45.3118 27.2243 45.1204 27.2243H44.4572C43.4064 27.2243 42.6734 26.9884 42.1943 26.5009C41.613 25.9112 41.4168 25.0638 41.4168 23.4425V0.486746C41.4168 0.297775 41.2952 0.166578 41.0954 0.166578H37.2919ZM48.9316 0.166578C48.739 0.166578 48.6102 0.301386 48.6102 0.486746V24.8917C48.6102 27.4747 49.1808 28.7638 50.1798 29.7339C51.3642 30.8858 53.3189 31.4623 55.5167 31.4623H56.7625C56.9539 31.4623 57.0826 31.3384 57.0826 31.1446V27.5433C57.0826 27.3146 56.9539 27.2243 56.7625 27.2243H56.0993C55.0473 27.2243 54.3155 26.9884 53.834 26.5009C53.2551 25.9112 53.0577 25.0638 53.0577 23.4425V0.486746C53.0577 0.297775 52.9361 0.166578 52.7375 0.166578H48.9316ZM91.6452 0C88.6085 0 86.2168 0.80764 84.699 2.2833C82.908 4.02616 82.3845 6.11568 82.3845 9.47021V26.7364H81.0267C80.8486 26.7364 80.7066 26.8808 80.7066 27.059V30.7325C80.7066 30.907 80.8486 31.0514 81.0267 31.0514H88.5615C88.7409 31.0514 88.8829 30.907 88.8829 30.7325V27.059C88.8829 26.8808 88.7409 26.7364 88.5615 26.7364H86.8319V14.7879H92.6635C92.8778 14.7879 93.0041 14.6868 93.0041 14.4521V10.7894C93.0041 10.5896 92.897 10.474 92.6551 10.474H86.8319V9.64835C86.8319 7.81281 87.081 6.52732 87.9814 5.60052C88.9094 4.64965 90.2863 4.31143 92.312 4.31143H93.2894C93.5169 4.31143 93.7083 4.18866 93.7083 3.99367V0.323778C93.7083 0.101105 93.5903 0 93.3616 0H91.6452Z" fill="black"/>
</svg>
